<?xml version="1.0" standalone="no"?>
<!DOCTYPE svg PUBLIC "-//W3C//DTD SVG 20010904//EN"
 "http://www.w3.org/TR/2001/REC-SVG-20010904/DTD/svg10.dtd">
<svg version="1.0" xmlns="http://www.w3.org/2000/svg"
 width="199.000000pt" height="175.000000pt" viewBox="0 0 199.000000 175.000000"
 preserveAspectRatio="xMidYMid meet">
<metadata>
Created by potrace 1.10, written by Peter Selinger 2001-2011
</metadata>
<g transform="translate(0.000000,175.000000) scale(0.100000,-0.100000)"
fill="#000000" stroke="none">
<path d="M1107 1437 c-8 -18 -33 -66 -56 -106 l-42 -75 93 -190 c51 -105 95
-195 99 -199 4 -5 35 45 69 110 l62 118 -31 60 c-18 33 -57 105 -87 160 -30
55 -61 112 -67 128 -15 35 -24 34 -40 -6z m111 -201 l75 -138 -16 -34 c-31
-65 -69 -116 -78 -107 -12 12 -130 252 -139 283 -9 33 50 145 73 137 6 -2 44
-65 85 -141z"/>
<path d="M928 1130 c-10 -17 -45 -83 -79 -148 -34 -64 -86 -159 -116 -209 -29
-51 -53 -95 -53 -98 0 -3 13 1 30 10 16 8 93 40 172 70 188 73 218 86 218 96
0 9 -149 309 -153 309 -1 0 -10 -14 -19 -30z m77 -160 c30 -62 45 -103 40
-108 -14 -13 -244 -102 -262 -102 -10 0 -4 20 24 73 20 39 40 74 43 77 3 3 23
40 44 83 22 42 45 77 51 77 6 0 33 -45 60 -100z"/>
<path d="M1329 697 l-115 -212 234 -3 c129 -1 237 -1 239 2 2 2 -11 28 -30 57
-19 30 -73 125 -122 212 -48 86 -88 157 -88 157 -1 -1 -54 -96 -118 -213z
m168 53 c20 -36 55 -98 80 -139 25 -42 40 -78 36 -82 -10 -10 -321 -14 -330
-5 -3 3 10 33 30 68 19 35 51 95 72 133 45 83 55 97 67 93 6 -2 26 -33 45 -68z"/>
<path d="M1088 740 c-35 -19 -380 -156 -443 -177 -25 -8 -62 -51 -64 -75 -1
-5 91 -8 203 -8 l204 0 60 108 c34 59 71 122 83 140 25 38 13 41 -43 12z m-74
-140 c-19 -37 -43 -71 -52 -75 -20 -7 -282 -8 -290 0 -6 6 23 18 218 95 80 31
148 55 152 53 5 -2 -8 -35 -28 -73z"/>
</g>
</svg>
